<svg xmlns="http://www.w3.org/2000/svg" width="512" height="512" fill="none"><rect width="512" height="512" x="-.006" fill="#262626" rx="100"/><rect width="173.138" height="40.543" x="20.93" y="109.01" fill="#FACC15" rx="20.271" transform="rotate(.043 20.93 109.01)"/><rect width="173.138" height="40.543" x="100.982" y="183.969" fill="#FACC15" rx="20.271" transform="rotate(.043 100.982 183.969)"/><rect width="173.138" height="40.543" x="181.491" y="259.354" fill="#FACC15" rx="20.271" transform="rotate(.043 181.491 259.354)"/><rect width="62.431" height="40.543" x="261.998" y="334.739" fill="#FACC15" rx="20.271" transform="rotate(.043 261.998 334.739)"/><path fill="#FACC15" d="M442.513 435.922c3.33 6.729-3.607 13.925-10.454 10.844l-76.72-34.531c-5.048-2.273-6.318-8.862-2.476-12.848l39.401-40.872c3.842-3.985 10.473-2.958 12.929 2.004z"/></svg>