<?xml version="1.0" standalone="no"?>
<!DOCTYPE svg PUBLIC "-//W3C//DTD SVG 20010904//EN"
 "http://www.w3.org/TR/2001/REC-SVG-20010904/DTD/svg10.dtd">
<svg version="1.0" xmlns="http://www.w3.org/2000/svg"
 width="180.000000pt" height="180.000000pt" viewBox="0 0 180.000000 180.000000"
 preserveAspectRatio="xMidYMid meet">

<g transform="translate(0.000000,180.000000) scale(0.100000,-0.100000)"
fill="#000000" stroke="none">
<path d="M763 1789 c-200 -29 -413 -149 -549 -309 -408 -481 -199 -1226 401
-1431 539 -183 1110 182 1177 753 68 581 -443 1071 -1029 987z m402 -629 l260
-260 -263 -263 -262 -262 -262 262 -263 263 260 260 c143 143 262 260 265 260
3 0 122 -117 265 -260z"/>
<path d="M705 1090 l-190 -190 193 -193 192 -192 192 192 193 193 -190 190
c-104 104 -192 190 -195 190 -3 0 -91 -86 -195 -190z m320 -70 l120 -120 -123
-123 -122 -122 -122 122 -123 123 120 120 c66 66 122 120 125 120 3 0 59 -54
125 -120z"/>
</g>
</svg>
