<svg xmlns="http://www.w3.org/2000/svg" width="240" height="240" version="1.0" viewBox="0 0 180 180"><path d="M76.3 1.1C56.3 4 35 16 21.4 32-19.4 80.1 1.5 154.6 61.5 175.1c53.9 18.3 111-18.2 117.7-75.3C186 41.7 134.9-7.3 76.3 1.1zM116.5 64l26 26-26.3 26.3L90 142.5l-26.2-26.2L37.5 90l26-26C77.8 49.7 89.7 38 90 38c.3 0 12.2 11.7 26.5 26z"/><path d="m70.5 71-19 19 19.3 19.3L90 128.5l19.2-19.2L128.5 90l-19-19C99.1 60.6 90.3 52 90 52c-.3 0-9.1 8.6-19.5 19zm32 7 12 12-12.3 12.3L90 114.5l-12.2-12.2L65.5 90l12-12c6.6-6.6 12.2-12 12.5-12 .3 0 5.9 5.4 12.5 12z"/></svg>