<?xml version="1.0" standalone="no"?>
<!DOCTYPE svg PUBLIC "-//W3C//DTD SVG 20010904//EN"
 "http://www.w3.org/TR/2001/REC-SVG-20010904/DTD/svg10.dtd">
<svg version="1.0" xmlns="http://www.w3.org/2000/svg"
 width="199.000000pt" height="190.000000pt" viewBox="0 0 199.000000 190.000000"
 preserveAspectRatio="xMidYMid meet">

<g transform="translate(0.000000,190.000000) scale(0.100000,-0.100000)"
fill="#000000" stroke="none">
<path d="M845 1870 c-372 -58 -676 -338 -767 -706 -30 -124 -30 -304 0 -428
83 -335 340 -597 677 -687 115 -31 345 -31 460 0 308 83 560 319 653 611 34
106 45 179 45 290 0 111 -11 184 -45 290 -94 293 -349 532 -653 610 -92 24
-279 34 -370 20z m271 -127 c-3 -16 -8 -49 -12 -75 -10 -72 -28 -60 -20 13 4
33 10 67 13 75 9 25 25 15 19 -13z m28 -56 c-9 -37 -20 -67 -25 -67 -11 0 -11
15 0 60 5 19 12 48 16 64 3 17 10 25 15 20 5 -5 3 -37 -6 -77z m-252 35 c-2
-16 1 -33 7 -36 17 -11 13 -26 -8 -26 -15 0 -20 9 -23 43 -3 23 0 45 6 49 17
11 23 1 18 -30z m79 16 l20 -23 -6 23 c-5 18 -2 22 15 22 16 0 20 -4 16 -16
-3 -9 -6 -29 -6 -45 0 -35 -15 -37 -41 -6 l-20 22 6 -22 c5 -18 2 -23 -12 -23
-15 0 -18 8 -18 45 -1 51 15 59 46 23z m-130 -31 c10 -37 3 -54 -24 -61 -26
-6 -43 7 -51 40 -9 33 10 56 42 52 19 -2 28 -11 33 -31z m417 -6 c-2 -10 6
-28 16 -40 11 -12 14 -21 8 -21 -6 0 -14 5 -17 10 -10 16 -21 12 -33 -12 -17
-36 -15 3 3 46 16 39 28 48 23 17z m-518 -7 c0 -8 -5 -12 -10 -9 -19 12 -39
-3 -33 -24 5 -21 43 -30 43 -11 0 6 5 10 10 10 6 0 10 -7 10 -15 0 -20 -40
-35 -61 -24 -22 11 -33 57 -18 75 16 19 59 18 59 -2z m571 -7 c-13 -13 -26 -3
-16 12 3 6 11 8 17 5 6 -4 6 -10 -1 -17z m-671 -22 c0 -8 -8 -16 -17 -16 -17
-1 -17 -2 0 -6 12 -3 16 -10 12 -24 -4 -11 -2 -19 4 -19 6 0 11 5 11 10 0 6 5
10 10 10 16 0 12 -22 -7 -36 -25 -19 -43 -17 -43 4 0 10 -7 28 -16 40 -9 13
-14 25 -13 26 10 8 45 25 52 26 4 0 7 -7 7 -15z m790 -88 c0 -5 -22 4 -50 20
-27 15 -50 32 -50 36 0 5 22 -4 50 -20 27 -15 50 -32 50 -36z m-862 35 c2 -7
-6 -12 -17 -12 -25 0 -28 -22 -6 -40 12 -10 19 -10 27 -2 9 9 7 12 -7 12 -18
0 -18 1 -2 18 16 15 19 15 27 2 16 -25 11 -40 -15 -52 -27 -12 -47 -2 -66 33
-7 14 -4 24 11 39 22 22 41 23 48 2z m939 -54 c-3 -8 -6 -5 -6 6 -1 11 2 17 5
13 3 -3 4 -12 1 -19z m-27 -4 c0 -8 -5 -12 -10 -9 -6 4 -8 11 -5 16 9 14 15
11 15 -7z m-973 -20 c33 -51 -23 -85 -66 -40 -19 20 -21 28 -12 45 16 30 56
27 78 -5z m558 -5 c22 -6 48 -18 58 -27 15 -13 17 -13 17 0 0 9 9 18 20 21 11
3 20 1 20 -5 0 -6 13 -7 31 -3 24 6 30 4 24 -5 -6 -10 1 -12 28 -7 21 3 37 2
37 -4 0 -5 25 -9 56 -9 49 0 55 -2 44 -15 -7 -8 -9 -15 -5 -15 5 0 1 -8 -8
-18 -10 -10 -14 -21 -11 -25 3 -3 -4 -11 -16 -17 -17 -9 -19 -14 -10 -20 10
-6 8 -11 -8 -21 -11 -7 -18 -19 -15 -26 3 -7 -2 -13 -11 -13 -9 0 -16 -5 -16
-11 0 -21 -29 -39 -65 -39 -22 0 -34 -4 -30 -10 3 -5 2 -10 -4 -10 -11 0 -9
49 2 67 11 18 -13 71 -35 76 -13 4 -19 11 -15 21 4 10 1 13 -9 9 -17 -6 -17
-3 -3 33 l10 28 -24 -26 c-32 -34 -87 -43 -157 -24 l-55 15 65 0 c45 0 59 -3
45 -9 -20 -8 -20 -9 1 -9 33 -1 82 19 89 36 16 43 -98 75 -192 55 -90 -19
-105 -49 -39 -78 17 -7 24 -13 16 -14 -8 0 -36 11 -62 25 -35 18 -46 21 -42
10 3 -8 9 -13 13 -11 3 2 14 -2 24 -9 16 -11 17 -16 5 -34 -7 -12 -23 -24 -36
-27 -23 -7 -35 -36 -35 -89 0 -26 -4 -30 -29 -32 -15 0 -28 3 -28 8 0 5 -7 9
-16 9 -8 0 -13 4 -10 9 3 5 -1 12 -10 15 -8 3 -12 10 -9 16 3 5 -1 10 -9 10
-10 0 -13 6 -10 15 4 11 0 15 -16 15 -16 0 -20 4 -16 15 3 9 -1 18 -9 21 -8 4
-13 10 -10 14 3 4 -2 10 -10 14 -8 3 -15 14 -15 24 0 10 -5 23 -12 30 -9 9 2
12 50 12 34 0 62 4 62 10 0 5 13 7 32 3 22 -4 29 -3 24 5 -9 15 18 16 45 2 13
-7 19 -7 19 -1 0 7 8 7 24 1 14 -5 27 -5 32 0 26 26 154 37 219 19z m495 1 c0
-5 -4 -10 -9 -10 -6 0 -13 5 -16 10 -3 6 1 10 9 10 9 0 16 -4 16 -10z m-55
-31 l40 -6 -42 -2 c-48 -1 -75 7 -67 20 3 5 11 6 17 2 7 -4 30 -10 52 -14z
m-1065 -29 c19 -19 19 -22 5 -50 -19 -36 -22 -37 -47 -5 -11 14 -26 25 -34 25
-18 0 -18 9 3 32 21 24 48 23 73 -2z m450 5 c7 -9 10 -18 7 -22 -8 -7 -37 15
-37 28 0 14 16 11 30 -6z m209 -11 c-6 -7 -15 -11 -21 -8 -5 3 -4 12 3 20 6 7
15 11 21 8 5 -3 4 -12 -3 -20z m511 -47 c0 -3 -8 -3 -19 0 -21 5 -37 -12 -21
-22 5 -3 10 -12 10 -18 -1 -7 -14 3 -30 22 -16 19 -27 37 -24 40 3 3 9 0 13
-7 13 -21 43 -3 35 22 -6 18 -3 17 15 -6 11 -14 21 -28 21 -31z m-663 7 c-3
-3 -12 -4 -19 -1 -8 3 -5 6 6 6 11 1 17 -2 13 -5z m175 -20 c7 -5 5 -12 -8
-21 -17 -13 -16 -14 17 -8 48 9 66 -11 50 -56 -6 -18 -11 -46 -11 -63 0 -17
-5 -38 -11 -46 -7 -11 -8 -5 -3 22 9 56 -20 71 -154 74 l-107 2 100 -7 c137
-10 145 -14 145 -59 -1 -70 -49 -132 -112 -148 -22 -5 -28 -3 -28 10 0 9 -4
16 -10 16 -5 0 -10 -7 -10 -16 0 -13 -6 -15 -27 -9 -50 12 -113 71 -99 93 2 4
-2 16 -11 27 -13 19 -14 18 -8 -10 l7 -30 -18 25 c-10 14 -19 38 -20 55 -1 16
-8 45 -15 62 -16 40 -8 50 52 62 24 5 33 9 20 10 -18 1 -21 4 -13 14 8 9 44
12 137 10 69 -1 131 -5 137 -9z m-771 -50 c51 -32 73 -54 53 -54 -14 0 -124
72 -124 81 0 14 8 11 71 -27z m1322 -5 c22 -40 22 -44 -8 -57 -37 -17 -39 -16
-58 23 -19 40 -8 48 13 10 14 -26 34 -33 45 -15 3 5 -1 23 -10 40 -20 39 -5
39 18 -1z m-1338 -30 c30 -17 55 -35 55 -41 0 -12 -1 -11 -73 27 -53 28 -71
45 -47 45 6 0 35 -14 65 -31z m1372 -89 c14 -11 32 -20 39 -20 8 0 14 -5 14
-10 0 -6 -11 -8 -25 -4 -13 3 -38 1 -55 -4 -16 -6 -30 -7 -30 -3 0 5 12 12 26
15 25 7 26 8 9 26 -23 26 -10 26 22 0z m-1479 -7 c-2 -13 10 -23 47 -36 48
-17 48 -17 10 -11 -22 4 -48 7 -57 8 -13 0 -18 9 -18 28 0 15 5 28 10 28 6 0
10 -8 8 -17z m82 -16 c0 -7 -4 -7 -12 1 -7 7 -20 12 -30 12 -10 0 -18 4 -18 9
0 6 12 6 30 0 17 -6 30 -16 30 -22z m402 -14 c-51 -2 -132 -2 -180 0 -48 1 -6
3 93 3 99 0 138 -2 87 -3z m720 0 c-51 -2 -132 -2 -180 0 -48 1 -6 3 93 3 99
0 138 -2 87 -3z m-1157 -51 c-6 -7 -45 9 -45 18 0 4 11 3 24 -3 14 -7 23 -13
21 -15z m1489 -17 c-6 -16 -24 -21 -24 -7 0 11 11 22 21 22 5 0 6 -7 3 -15z
m-69 -16 c4 -11 21 -29 38 -40 27 -16 29 -19 11 -19 -22 0 -43 20 -63 58 -7
13 -8 22 -2 22 5 0 13 -9 16 -21z m-1445 -28 c0 -4 -11 -6 -25 -3 -14 2 -25 6
-25 8 0 2 11 4 25 4 14 0 25 -4 25 -9z m34 -26 c-5 -19 -10 -23 -17 -16 -6 6
-22 11 -36 11 -15 0 -33 5 -41 10 -12 8 -11 10 7 10 12 0 34 -5 48 -10 23 -9
28 -7 32 10 3 12 7 19 10 17 2 -3 1 -17 -3 -32z m-41 -22 c-7 -2 -21 -2 -30 0
-10 3 -4 5 12 5 17 0 24 -2 18 -5z m-60 -18 c4 -8 2 -17 -3 -20 -6 -4 -10 3
-10 14 0 25 6 27 13 6z m442 -5 c-8 -26 2 -25 25 3 10 12 22 19 26 14 4 -4 -4
-20 -19 -35 -23 -24 -24 -29 -11 -37 21 -13 9 -85 -13 -85 -12 0 -13 8 -8 40
4 25 3 40 -3 40 -6 0 -13 -18 -17 -40 -5 -31 -11 -40 -27 -40 -14 0 -18 5 -14
18 7 24 25 105 26 115 0 5 -4 5 -10 2 -5 -3 -10 -15 -10 -26 0 -10 -7 -19 -15
-19 -22 0 -18 18 10 45 31 31 69 34 60 5z m166 4 c9 -11 10 -20 2 -32 -7 -12
-7 -22 1 -34 7 -11 7 -26 0 -45 -8 -25 -15 -28 -57 -31 -26 -2 -47 1 -47 5 1
4 7 35 15 68 16 68 12 84 -9 34 -13 -30 -15 -31 -22 -15 -17 44 85 88 117 50z
m101 -36 l3 -53 18 53 c10 28 23 52 28 52 12 0 9 -10 -24 -95 -14 -36 -30 -61
-40 -63 -15 -3 -17 6 -17 68 0 53 -3 71 -12 68 -7 -3 -14 -14 -16 -26 -4 -23
-17 -29 -27 -12 -9 14 40 60 64 60 17 0 20 -8 23 -52z m146 25 c2 -13 -1 -23
-7 -23 -6 0 -11 7 -11 15 0 8 -4 15 -9 15 -16 0 -23 -19 -13 -37 7 -11 6 -21
-4 -31 -21 -20 -18 -52 5 -52 11 0 22 4 25 9 9 13 46 1 46 -15 0 -8 -7 -14
-15 -14 -8 0 -15 5 -15 10 0 7 -7 7 -20 0 -12 -6 -33 -10 -48 -8 -21 2 -28 9
-30 29 -2 15 4 33 12 42 9 9 13 23 10 32 -9 21 25 57 50 53 13 -2 22 -12 24
-25z m-785 10 c-7 -2 -21 -2 -30 0 -10 3 -4 5 12 5 17 0 24 -2 18 -5z m11 -21
c5 -9 -52 -7 -61 2 -4 3 8 6 25 6 17 0 33 -4 36 -8z m898 -27 c-2 -5 -9 -9
-15 -7 -14 4 -27 -18 -27 -46 0 -36 30 -23 54 23 24 45 53 56 73 29 13 -17 15
-18 24 -2 7 12 22 16 62 14 69 -3 77 -8 70 -54 -6 -34 -5 -36 10 -23 19 15 23
1 5 -17 -16 -16 -48 -15 -49 1 -1 6 0 25 1 41 2 39 -16 25 -24 -19 -5 -22 -13
-35 -23 -35 -13 0 -14 7 -9 40 3 22 2 40 -3 40 -5 0 -12 -18 -16 -40 -5 -29
-12 -40 -24 -40 -14 0 -17 7 -14 33 l3 32 -11 -28 c-12 -30 -52 -46 -73 -28
-10 8 -16 9 -21 1 -10 -16 -65 -12 -71 5 -8 21 3 60 22 80 17 17 61 17 56 0z
m648 -5 c0 -6 -32 -10 -75 -10 -43 0 -75 4 -75 10 0 6 32 10 75 10 43 0 75 -4
75 -10z m-54 -30 c30 0 54 -4 54 -10 0 -11 -108 -14 -134 -4 -9 3 -13 10 -10
16 3 5 13 7 21 4 8 -3 39 -6 69 -6z m-1476 -8 c0 -4 -12 -7 -27 -6 -16 1 -40
-5 -55 -13 -24 -12 -28 -12 -28 1 0 8 8 17 18 19 30 8 92 7 92 -1z m-67 -29
c-27 -10 -11 -21 23 -16 25 4 39 2 45 -8 16 -26 9 -30 -46 -28 -30 1 -55 6
-55 11 0 4 6 8 13 9 9 0 9 2 -1 6 -10 4 -10 8 -1 19 6 8 17 14 23 13 7 0 6 -2
-1 -6z m17 -147 l-21 -21 18 32 c10 18 20 28 22 22 2 -6 -6 -21 -19 -33z m66
17 c-10 -10 -19 5 -10 18 6 11 8 11 12 0 2 -7 1 -15 -2 -18z m1389 18 c3 -5 1
-12 -5 -16 -5 -3 -10 1 -10 9 0 18 6 21 15 7z m42 -44 c-3 -9 -17 -12 -41 -9
-20 2 -33 8 -30 14 3 5 19 6 35 3 20 -5 29 -3 29 6 0 7 3 10 6 6 4 -3 4 -12 1
-20z m-1407 -19 c0 -19 -16 -5 -17 14 -2 18 0 20 7 8 5 -8 10 -18 10 -22z
m-39 4 c-7 -2 -18 1 -23 6 -8 8 -4 9 13 5 13 -4 18 -8 10 -11z m-21 -22 c11
-8 7 -9 -15 -4 -37 8 -45 14 -19 14 10 0 26 -5 34 -10z m1260 0 c0 -7 -185
-10 -535 -10 -350 0 -535 3 -535 10 0 7 185 10 535 10 350 0 535 -3 535 -10z
m180 -5 c10 -12 10 -18 0 -30 -7 -8 -18 -15 -25 -15 -19 0 -36 25 -29 44 8 20
38 21 54 1z m-725 -66 c22 -1 47 0 55 2 17 5 27 -38 12 -53 -10 -10 -1 -50 24
-100 7 -17 9 -30 3 -33 -5 -4 -9 -11 -9 -16 0 -6 6 -7 13 -2 17 11 37 13 37 3
0 -10 -31 -36 -39 -33 -3 2 -14 0 -24 -3 -26 -8 -33 2 -16 23 8 10 -4 3 -26
-15 -42 -34 -68 -42 -59 -18 4 10 -2 16 -18 18 -17 2 -26 14 -36 45 -12 37
-12 53 4 122 12 55 21 77 29 71 6 -5 29 -10 50 -11z m-581 2 c4 -5 -23 -25
-58 -45 -69 -38 -76 -41 -76 -27 0 7 102 71 127 80 1 1 4 -3 7 -8z m1252 -13
c4 -13 12 -26 18 -30 7 -5 5 -8 -6 -8 -11 0 -15 -5 -12 -15 4 -8 1 -15 -5 -15
-6 0 -10 5 -8 12 1 6 -9 15 -23 19 l-25 7 25 2 c14 1 19 4 13 7 -7 2 -13 9
-13 14 0 6 5 7 12 3 8 -5 9 -2 5 9 -3 10 -2 17 3 17 5 0 12 -10 16 -22z
m-1240 -27 c-10 -16 -116 -74 -123 -67 -8 8 -8 8 62 50 57 34 74 39 61 17z
m721 -59 c17 -10 28 -68 15 -76 -5 -3 -12 8 -16 25 -3 17 -10 28 -16 24 -6 -4
-8 -11 -5 -16 4 -5 -1 -9 -9 -9 -22 0 -38 34 -24 48 14 14 37 15 55 4z m-642
-92 c-4 -6 -11 -10 -16 -10 -6 0 -7 5 -4 10 3 6 -3 25 -15 43 l-22 32 31 -33
c18 -18 29 -37 26 -42z m1098 27 c-3 -4 -14 -5 -25 -1 -17 5 -19 3 -13 -15 8
-27 -7 -27 -31 1 -18 21 -18 21 0 15 14 -6 17 -4 12 9 -5 12 -1 14 16 8 21 -6
22 -5 8 12 -14 16 -13 16 11 -1 15 -11 25 -24 22 -28z m-1176 5 c-10 -10 -15
-21 -12 -23 2 -3 -6 -5 -18 -6 -20 -2 -20 0 8 23 36 29 44 31 22 6z m46 -55
c15 -3 11 -5 -12 -6 -25 -1 -32 -5 -27 -16 7 -20 3 -19 -19 5 -16 18 -16 20
-2 15 12 -5 18 1 24 22 7 25 8 26 11 6 2 -13 12 -23 25 -26z m1041 17 c19 -7
21 -50 4 -57 -18 -6 -48 11 -48 26 0 7 5 18 12 25 14 14 12 14 32 6z m-594
-34 c0 -5 -10 -10 -22 -10 -19 0 -20 2 -8 10 19 13 30 13 30 0z m-322 -20 c28
-26 28 -40 0 -40 -19 0 -20 -2 -8 -11 13 -9 13 -10 0 -6 -8 2 -14 11 -12 18 3
11 1 11 -9 2 -10 -10 -9 -15 1 -28 9 -11 10 -19 3 -26 -13 -13 -42 0 -64 28
-10 12 -5 11 15 -5 16 -12 33 -22 37 -22 19 0 7 19 -23 40 -29 18 -30 20 -8
14 l25 -7 -20 24 c-18 21 -18 22 -1 9 17 -14 18 -13 12 8 -6 17 -3 22 11 22
11 0 29 -9 41 -20z m882 -34 c0 -5 -6 -3 -13 3 -17 13 -28 4 -20 -17 9 -22
-14 -6 -28 20 -10 18 -8 19 11 13 19 -6 21 -4 15 17 l-6 23 20 -25 c11 -14 21
-29 21 -34z m-82 -8 c7 -7 12 -19 12 -27 -1 -13 -3 -12 -15 3 -9 12 -20 16
-31 12 -14 -5 -15 -4 -4 9 15 18 22 19 38 3z m-671 -40 c-2 -7 5 -18 17 -25
12 -7 16 -12 10 -13 -19 0 -47 27 -40 38 10 16 19 15 13 0z m598 -9 c5 -14 12
-19 23 -15 13 5 12 2 -2 -9 -22 -17 -40 -20 -31 -5 3 5 1 19 -5 30 -6 12 -7
20 -1 20 5 0 13 -9 16 -21z m60 1 c3 -5 2 -10 -4 -10 -5 0 -13 5 -16 10 -3 6
-2 10 4 10 5 0 13 -4 16 -10z m-272 -92 c3 -33 2 -58 -4 -58 -14 0 -34 132
-22 144 10 10 19 -21 26 -86z m156 75 c0 -11 -3 -13 -6 -5 -2 6 -9 10 -14 6
-5 -3 -5 -14 2 -25 6 -12 8 -23 6 -26 -3 -3 -13 9 -21 25 -15 28 -14 31 2 35
30 8 32 7 31 -10z m-194 -58 c8 -74 -5 -113 -17 -50 -10 57 -10 115 1 115 5 0
12 -29 16 -65z m-305 23 c12 -8 12 -9 -2 -4 -10 3 -18 3 -18 -1 0 -3 8 -12 18
-19 28 -21 3 -37 -37 -23 -17 6 -30 13 -28 15 2 3 16 0 30 -5 15 -6 29 -6 32
-1 3 5 -4 11 -15 15 -11 3 -20 12 -20 20 0 7 -6 16 -12 19 -7 3 -2 3 12 0 14
-4 32 -11 40 -16z m102 15 c-6 -2 -9 -10 -6 -15 4 -7 2 -8 -5 -4 -13 9 -5 26
12 25 9 0 8 -2 -1 -6z m45 1 c-3 -3 -12 -4 -19 -1 -8 3 -5 6 6 6 11 1 17 -2
13 -5z m23 -18 c0 -7 -9 -16 -20 -19 -27 -7 -25 -27 3 -28 20 -2 20 -2 -3 -7
-23 -4 -24 -5 -5 -12 18 -7 17 -9 -9 -15 -20 -6 -31 -4 -34 3 -2 7 -11 12 -20
13 -10 0 -5 5 11 11 33 12 35 25 5 31 -17 3 -11 6 20 12 23 4 42 11 42 16 0 5
2 9 5 9 3 0 5 -6 5 -14z m-3 -32 c-3 -3 -12 -4 -19 -1 -8 3 -5 6 6 6 11 1 17
-2 13 -5z"/>
<path d="M788 1714 c-3 -3 -4 -14 -1 -25 8 -28 33 -24 33 6 0 23 -18 34 -32
19z"/>
<path d="M450 1526 c0 -22 29 -41 42 -28 8 8 8 15 -2 27 -16 19 -40 20 -40 1z"/>
<path d="M1270 1439 c-7 -11 -10 -23 -7 -25 2 -2 9 7 15 21 14 30 7 33 -8 4z"/>
<path d="M690 1419 c0 -5 5 -7 10 -4 6 3 10 8 10 11 0 2 -4 4 -10 4 -5 0 -10
-5 -10 -11z"/>
<path d="M710 1379 c0 -5 5 -7 10 -4 6 3 10 8 10 11 0 2 -4 4 -10 4 -5 0 -10
-5 -10 -11z"/>
<path d="M390 1461 c0 -12 29 -35 36 -28 11 10 -5 37 -21 37 -8 0 -15 -4 -15
-9z"/>
<path d="M836 1284 c-9 -8 -16 -21 -16 -27 0 -7 5 -4 11 5 5 10 17 22 27 27 9
6 12 11 5 11 -6 0 -19 -7 -27 -16z"/>
<path d="M1060 1253 c-39 -16 -55 -62 -22 -64 9 0 32 -1 50 -2 46 -3 40 12 -9
19 -42 7 -36 24 9 24 25 0 30 15 6 24 -9 3 -16 6 -17 5 -1 0 -9 -3 -17 -6z"/>
<path d="M860 1241 c0 -5 19 -12 43 -16 34 -7 37 -9 17 -12 -45 -8 -46 -23 -2
-23 34 0 42 3 42 18 0 11 -11 24 -25 30 -30 14 -75 16 -75 3z"/>
<path d="M1000 1173 c0 -12 -10 -23 -27 -30 -28 -10 -27 -10 9 -9 20 0 35 4
32 8 -3 4 4 8 15 8 23 0 28 -15 9 -23 -9 -4 -8 -6 2 -6 8 0 23 6 33 13 16 13
16 14 -10 21 -15 3 -36 14 -45 22 -17 15 -18 15 -18 -4z"/>
<path d="M955 1170 c-3 -5 -1 -10 4 -10 6 0 11 5 11 10 0 6 -2 10 -4 10 -3 0
-8 -4 -11 -10z"/>
<path d="M907 1151 c-17 -6 -17 -8 2 -25 19 -17 19 -17 17 1 -2 10 2 21 8 25
14 10 -3 9 -27 -1z"/>
<path d="M738 1013 c6 -2 12 -14 12 -26 0 -16 3 -18 11 -10 16 16 4 43 -18 42
-11 0 -13 -3 -5 -6z"/>
<path d="M736 928 c-9 -33 -8 -38 8 -38 16 0 31 34 21 50 -10 17 -22 11 -29
-12z"/>
<path d="M1212 943 c-15 -26 -15 -53 -2 -53 11 0 24 43 18 62 -3 8 -9 5 -16
-9z"/>
<path d="M215 859 c-3 -4 10 -8 30 -7 39 1 39 9 0 13 -14 2 -27 -1 -30 -6z"/>
<path d="M1654 689 c-6 -10 11 -28 28 -29 15 0 20 23 7 31 -19 12 -26 11 -35
-2z"/>
<path d="M910 575 c0 -8 5 -15 10 -15 6 0 10 7 10 15 0 8 -4 15 -10 15 -5 0
-10 -7 -10 -15z"/>
<path d="M957 573 c-13 -12 -7 -23 13 -23 11 0 20 7 20 15 0 15 -21 21 -33 8z"/>
<path d="M916 542 c-3 -6 -1 -14 5 -17 14 -9 20 -2 10 14 -6 8 -11 9 -15 3z"/>
<path d="M1465 420 c-8 -13 3 -30 21 -30 18 0 18 14 0 29 -10 8 -16 9 -21 1z"/>
<path d="M545 370 c10 -11 25 -20 33 -20 12 0 12 4 -3 20 -10 11 -25 20 -33
20 -12 0 -12 -4 3 -20z"/>
</g>
</svg>
